<?xml version="1.0" standalone="no"?>
<!DOCTYPE svg PUBLIC "-//W3C//DTD SVG 20010904//EN"
 "http://www.w3.org/TR/2001/REC-SVG-20010904/DTD/svg10.dtd">
<svg version="1.0" xmlns="http://www.w3.org/2000/svg"
 width="1103.000000pt" height="515.000000pt" viewBox="0 0 1103.000000 515.000000"
 preserveAspectRatio="xMidYMid meet">

<g transform="translate(0.000000,515.000000) scale(0.100000,-0.100000)"
fill="#000000" stroke="none">
<path d="M5260 3779 c-92 -24 -181 -65 -271 -125 -67 -44 -159 -137 -159 -160
0 -6 -6 -17 -14 -23 -8 -7 -18 -27 -22 -44 -3 -18 -10 -37 -16 -43 -5 -7 -13
-45 -18 -85 -6 -41 -14 -100 -19 -133 -6 -38 -6 -78 1 -115 5 -31 13 -77 17
-103 4 -25 12 -52 18 -60 6 -7 13 -29 17 -49 4 -21 13 -42 21 -49 8 -7 15 -20
15 -30 0 -47 188 -190 303 -229 186 -64 395 -49 522 39 78 54 208 227 234 312
5 18 17 53 27 78 13 36 17 81 17 225 1 169 -1 185 -25 255 -79 227 -172 305
-418 346 -109 18 -139 17 -230 -7z m379 -265 c27 -16 63 -49 86 -81 22 -29 45
-59 51 -66 28 -31 22 -230 -9 -365 -54 -225 -291 -400 -422 -311 -52 36 -71
92 -85 254 -26 307 34 505 172 574 63 31 146 29 207 -5z"/>
<path d="M2950 3740 c-19 -5 -61 -13 -92 -20 -54 -11 -58 -13 -58 -39 0 -15 7
-36 15 -47 8 -10 15 -31 15 -45 0 -14 7 -34 15 -45 8 -10 15 -28 15 -39 0 -11
9 -38 20 -60 11 -22 19 -49 20 -61 0 -11 7 -29 15 -40 8 -10 15 -28 15 -38 0
-22 47 -146 61 -160 5 -6 9 -19 9 -31 0 -12 7 -30 15 -41 8 -10 15 -25 15 -33
0 -8 9 -33 19 -55 10 -23 21 -52 24 -66 9 -42 47 -144 57 -154 6 -6 10 -20 10
-32 0 -12 7 -27 15 -34 8 -7 15 -18 15 -25 0 -28 118 -133 186 -166 61 -30 79
-34 168 -37 161 -6 209 17 232 113 4 17 10 35 14 40 4 6 11 21 15 35 11 40 49
109 62 115 21 8 43 -6 49 -31 3 -13 12 -28 20 -35 8 -6 14 -20 14 -32 0 -44
89 -151 136 -163 45 -12 82 21 124 112 22 46 40 87 40 90 0 3 8 24 19 47 10
23 35 85 55 137 21 52 41 102 46 111 4 8 20 47 35 85 15 38 36 87 46 110 10
22 19 47 19 55 0 8 7 23 15 33 8 11 15 30 15 42 0 13 4 25 9 28 7 5 31 68 75
201 9 28 16 71 16 97 0 42 -3 49 -30 63 -43 22 -69 18 -101 -16 -20 -21 -30
-45 -35 -80 -4 -27 -10 -52 -15 -54 -4 -3 -11 -25 -15 -50 -3 -24 -12 -50 -20
-56 -8 -6 -14 -16 -14 -22 0 -10 -34 -88 -51 -117 -5 -8 -12 -22 -16 -30 -3
-8 -14 -34 -24 -57 -11 -23 -19 -46 -19 -52 0 -5 -6 -22 -14 -38 -7 -15 -24
-59 -36 -98 -12 -38 -28 -84 -36 -102 -8 -17 -14 -36 -14 -43 0 -23 -45 -90
-61 -90 -19 0 -49 31 -49 51 0 9 -7 24 -15 35 -8 10 -15 25 -15 33 0 8 -9 32
-19 55 -11 23 -27 63 -37 90 -19 54 -56 96 -85 96 -47 0 -99 -51 -99 -97 0
-10 -9 -36 -20 -58 -11 -22 -20 -45 -20 -52 0 -8 -11 -31 -25 -53 -35 -56 -64
-54 -93 4 -12 24 -22 48 -22 54 0 6 -5 23 -12 39 -17 42 -78 213 -90 253 -5
19 -13 40 -17 45 -5 6 -14 31 -21 58 -7 26 -17 50 -21 53 -5 3 -9 14 -9 26 0
33 -62 170 -94 205 -24 28 -106 60 -205 78 -83 16 -108 17 -161 5z"/>
<path d="M6225 3737 c-128 -25 -125 -23 -125 -70 0 -23 9 -59 20 -80 11 -20
20 -45 20 -54 0 -10 7 -31 15 -47 8 -15 15 -35 15 -43 0 -8 6 -29 14 -46 8
-18 20 -51 26 -74 6 -23 15 -45 20 -48 6 -3 10 -16 10 -29 0 -12 7 -31 15 -42
8 -10 15 -26 15 -34 0 -9 9 -33 20 -55 11 -22 20 -46 20 -55 0 -9 7 -25 15
-36 8 -10 15 -28 15 -39 0 -12 9 -38 20 -60 11 -22 20 -49 20 -60 0 -12 7 -30
15 -41 8 -10 15 -26 15 -34 0 -8 16 -47 36 -87 43 -87 110 -152 204 -197 63
-30 70 -31 198 -31 l134 0 24 28 c13 15 24 36 24 45 0 9 7 26 15 36 8 11 15
27 15 35 1 9 9 34 20 56 11 22 19 45 20 51 0 6 12 21 26 35 l26 24 24 -30 c13
-16 29 -45 35 -63 36 -109 119 -192 176 -177 24 6 83 61 83 78 0 7 64 164 96
234 8 17 14 36 14 41 0 6 7 23 15 39 15 30 28 60 70 163 14 36 33 79 41 97 8
17 14 36 14 41 0 6 7 23 15 39 15 29 71 174 99 253 8 25 22 75 31 112 15 62
15 69 0 92 -24 36 -78 45 -113 19 -15 -11 -28 -29 -30 -39 -2 -10 -10 -33 -18
-51 -8 -17 -14 -42 -14 -56 0 -22 -14 -62 -57 -157 -9 -19 -20 -42 -24 -50 -5
-8 -14 -26 -19 -40 -6 -14 -17 -38 -25 -55 -40 -87 -55 -123 -55 -138 0 -9 -4
-18 -9 -21 -5 -3 -12 -23 -15 -43 -4 -21 -13 -51 -20 -68 -8 -16 -24 -57 -36
-90 -13 -33 -30 -68 -38 -77 -22 -26 -49 -22 -56 7 -4 14 -11 25 -16 25 -6 0
-10 7 -10 16 0 9 -9 35 -19 58 -10 23 -26 61 -36 86 -30 80 -58 131 -78 142
-26 14 -96 -7 -103 -30 -3 -9 -11 -28 -19 -42 -7 -14 -16 -41 -20 -60 -4 -19
-14 -44 -21 -55 -8 -11 -14 -25 -14 -33 0 -21 -42 -72 -59 -72 -24 1 -51 25
-51 45 0 9 -6 29 -14 43 -7 15 -23 59 -36 97 -13 39 -28 81 -33 95 -17 43 -78
213 -89 250 -5 19 -13 40 -18 45 -4 6 -10 24 -14 40 -7 28 -23 69 -49 124 -25
52 -111 94 -242 117 -89 15 -98 16 -170 1z"/>
<path d="M7170 1717 c0 -37 4 -47 20 -52 18 -6 20 -12 14 -58 -4 -29 -11 -63
-16 -76 -5 -13 -11 -57 -15 -97 -4 -52 -11 -79 -25 -94 -13 -14 -18 -32 -16
-58 l3 -37 65 0 65 0 3 36 c2 23 -3 42 -12 52 -9 9 -16 22 -16 31 0 12 11 14
58 9 68 -7 81 -16 60 -40 -9 -10 -18 -31 -20 -48 l-3 -30 65 0 65 0 3 33 c2
21 -2 38 -11 45 -9 7 -22 39 -30 72 -30 116 -47 191 -58 253 -14 77 -28 92
-82 92 -23 0 -59 3 -79 6 l-38 7 0 -46z m135 -164 c4 -16 10 -45 15 -65 l8
-38 -35 0 -35 0 6 48 c9 63 15 82 26 82 6 0 12 -12 15 -27z"/>
<path d="M7826 1753 c-3 -3 -6 -23 -6 -44 0 -29 5 -39 20 -44 24 -8 26 -50 6
-110 -8 -22 -17 -71 -21 -110 -4 -38 -14 -82 -21 -97 -8 -15 -14 -45 -14 -68
l0 -41 63 3 62 3 3 36 c2 23 -3 42 -12 52 -9 9 -16 23 -16 33 0 13 6 15 31 10
17 -3 44 -6 60 -6 22 0 29 -5 29 -20 0 -11 -7 -23 -15 -26 -9 -4 -15 -19 -15
-40 l0 -34 54 0 c93 0 102 11 65 87 -19 39 -44 138 -69 268 -18 97 -34 136
-55 140 -45 9 -143 14 -149 8z m128 -185 c2 -7 8 -37 13 -65 l10 -53 -35 0
-34 0 6 48 c4 26 9 55 12 65 6 20 23 23 28 5z"/>
<path d="M1793 1743 c-17 -3 -23 -11 -23 -32 0 -16 6 -34 14 -40 18 -15 33
-325 16 -346 -6 -7 -10 -29 -8 -47 l3 -33 68 -3 67 -3 0 39 c0 23 -6 45 -15
52 -16 13 -21 86 -7 106 4 8 21 9 47 5 l40 -6 3 -58 c2 -46 0 -57 -13 -57 -11
0 -15 -10 -15 -35 l0 -36 68 3 c66 3 67 4 70 32 2 16 -2 40 -9 52 -15 28 -7
317 9 337 8 9 7 20 -1 37 -11 22 -19 25 -72 25 -58 0 -60 -1 -63 -28 -2 -15 4
-34 12 -43 17 -16 22 -99 8 -121 -4 -6 -23 -13 -42 -15 -31 -3 -35 0 -41 27
-13 59 -10 114 7 123 10 6 14 19 12 38 -3 28 -5 29 -58 30 -30 1 -65 0 -77 -3z"/>
<path d="M2175 1740 c-10 -17 6 -80 21 -80 11 0 14 -26 14 -133 0 -74 3 -168
6 -210 l7 -77 57 0 58 0 32 63 c19 38 34 84 37 117 3 30 11 62 19 70 7 8 16
28 20 45 13 52 21 -1 16 -105 -3 -65 -9 -99 -18 -106 -17 -14 -18 -81 -1 -87
21 -8 122 5 129 17 13 19 9 74 -5 79 -22 8 -32 283 -12 314 8 12 15 41 15 64
l0 42 -37 -7 c-21 -3 -55 -6 -76 -6 -27 0 -39 -5 -43 -17 -3 -10 -9 -25 -14
-34 -5 -9 -12 -34 -16 -54 -4 -21 -13 -50 -20 -64 -7 -14 -16 -45 -20 -68 -3
-24 -15 -60 -25 -80 l-19 -37 0 137 c0 113 3 139 15 143 10 4 15 20 15 45 l0
39 -74 0 c-41 0 -78 -4 -81 -10z"/>
<path d="M2630 1707 c0 -37 4 -47 20 -52 19 -6 20 -15 20 -165 0 -125 -3 -159
-14 -163 -7 -3 -16 -19 -18 -36 -5 -36 12 -45 78 -39 l39 3 -3 85 c-2 47 -1
122 3 168 6 71 9 81 19 65 7 -10 16 -48 19 -85 8 -89 38 -198 54 -198 7 0 13
8 13 18 0 11 7 32 15 48 8 16 17 57 21 89 4 33 10 65 15 70 4 6 11 30 15 53 7
48 20 54 30 16 9 -36 -4 -226 -16 -238 -6 -6 -10 -32 -10 -59 l0 -50 62 7 c34
4 66 10 70 12 16 10 8 64 -12 84 -18 18 -20 33 -20 170 0 129 2 150 16 150 12
0 14 9 12 38 l-3 37 -75 0 -74 0 -7 -40 c-4 -22 -15 -57 -24 -78 -19 -46 -39
-38 -49 21 -3 20 -15 52 -26 70 -17 27 -26 32 -57 32 -21 0 -55 3 -75 6 l-38
7 0 -46z"/>
<path d="M3620 1705 c0 -33 4 -45 15 -45 12 0 15 -20 15 -118 0 -66 3 -160 6
-210 l7 -92 57 0 c58 0 58 0 79 40 33 64 61 151 61 192 0 20 5 40 11 43 6 4
14 17 19 29 6 14 9 -20 9 -97 1 -96 -2 -119 -14 -123 -10 -4 -15 -20 -15 -50
l0 -45 68 7 c37 4 68 8 70 9 2 1 6 19 9 39 4 27 2 40 -10 49 -13 10 -16 38
-16 157 -1 80 1 171 5 202 l6 57 -69 -6 c-75 -7 -89 -17 -98 -73 -3 -19 -13
-50 -20 -68 -8 -18 -18 -51 -21 -75 -4 -23 -13 -51 -19 -62 -7 -11 -16 -33
-20 -50 -6 -29 -7 -29 -22 -10 -12 16 -13 36 -8 95 4 41 6 88 6 104 -1 16 5
38 12 50 8 11 17 38 21 59 l7 37 -76 0 -75 0 0 -45z"/>
<path d="M4075 1742 c-11 -11 -4 -63 9 -68 11 -4 16 -43 21 -170 7 -147 6
-167 -10 -183 -9 -11 -15 -31 -13 -48 3 -28 4 -28 76 -31 l72 -3 0 41 c0 22
-4 40 -10 40 -6 0 -10 28 -10 65 0 64 0 65 25 60 81 -17 75 -12 75 -60 0 -32
-6 -50 -21 -64 -12 -11 -19 -28 -17 -43 3 -21 7 -23 68 -23 64 0 65 0 68 29 2
16 -2 39 -8 52 -11 20 -11 125 3 359 l2 40 -61 3 c-59 3 -62 2 -66 -22 -3 -14
-1 -31 3 -38 5 -7 9 -43 9 -79 l0 -67 -32 -5 c-18 -3 -36 -2 -39 2 -4 3 -10
36 -14 74 -5 56 -4 68 9 73 10 4 16 18 16 40 l0 34 -75 -1 c-41 -1 -77 -4 -80
-7z"/>
<path d="M4567 1741 l-89 -6 -1 -90 c-2 -77 0 -90 15 -93 12 -2 20 6 26 30 4
18 16 34 25 36 15 3 17 -10 17 -133 0 -111 -3 -137 -15 -141 -10 -4 -15 -20
-15 -44 0 -37 2 -38 38 -44 20 -3 53 -7 72 -8 35 -3 35 -3 38 41 2 32 -1 47
-12 53 -13 8 -16 33 -16 154 0 133 1 145 18 142 10 -2 18 -14 20 -30 2 -18 10
-27 27 -30 42 -8 46 2 39 90 l-7 82 -46 -2 c-25 -1 -86 -4 -134 -7z"/>
<path d="M5107 1743 c-4 -3 -7 -26 -7 -50 0 -37 4 -45 25 -53 24 -9 25 -12 25
-107 0 -133 -9 -203 -26 -203 -10 0 -14 -14 -14 -50 l0 -50 80 0 80 0 0 36 c0
21 -6 41 -15 48 -9 6 -18 28 -22 50 -7 43 4 56 50 56 18 0 42 13 68 38 39 35
40 40 46 113 5 70 4 78 -18 103 -43 50 -109 76 -192 76 -41 0 -77 -3 -80 -7z
m188 -133 c15 -17 16 -23 5 -50 -13 -31 -42 -55 -54 -43 -3 3 -6 30 -6 60 0
45 3 53 18 53 11 0 27 -9 37 -20z"/>
<path d="M5448 1743 c-22 -5 -24 -55 -4 -72 9 -7 15 -46 20 -114 3 -56 9 -128
12 -159 5 -48 4 -59 -10 -64 -11 -4 -16 -19 -16 -50 l0 -44 66 0 66 0 -8 101
-7 100 44 -3 44 -3 3 -57 c2 -47 0 -58 -13 -58 -11 0 -15 -10 -15 -35 l0 -36
73 3 72 3 3 31 c2 19 -3 36 -12 44 -24 19 -24 325 0 338 10 6 14 19 12 38 -3
29 -4 29 -75 32 l-73 3 0 -36 c0 -19 5 -35 10 -35 6 0 10 -30 10 -69 l0 -69
-32 -5 c-18 -3 -36 -2 -39 2 -12 12 -20 139 -9 146 5 3 10 22 10 41 l0 34 -57
-1 c-32 -1 -66 -3 -75 -6z"/>
<path d="M6694 1678 c3 -40 8 -118 11 -173 3 -55 8 -114 11 -132 3 -20 -1 -36
-11 -46 -8 -9 -15 -29 -15 -46 0 -29 2 -31 39 -31 69 0 66 -7 65 183 -1 94 0
162 3 150 2 -13 9 -23 14 -23 5 0 9 -17 9 -37 0 -51 18 -163 30 -188 5 -11 11
-36 12 -55 3 -31 6 -35 27 -32 33 3 32 2 41 74 5 35 13 81 19 103 6 22 11 57
11 77 0 20 5 49 12 65 l11 28 7 -30 c4 -16 8 -78 9 -136 1 -87 -2 -108 -14
-113 -10 -4 -15 -20 -15 -51 l0 -46 62 3 c51 2 63 6 66 21 2 10 -2 24 -8 32
-18 22 -21 392 -3 406 14 13 18 45 5 53 -4 3 -42 2 -84 -1 -90 -7 -91 -8 -108
-135 -7 -45 -14 -85 -16 -88 -12 -11 -24 29 -24 80 0 30 -3 79 -6 108 l-7 52
-80 0 -79 0 6 -72z"/>
<path d="M7581 1743 l-83 -4 7 -36 c3 -19 15 -45 26 -56 17 -19 19 -36 19
-163 0 -133 -1 -144 -21 -157 -15 -11 -20 -23 -17 -48 l3 -34 68 -3 67 -3 0
39 c0 23 -6 45 -15 52 -12 10 -15 42 -15 165 0 147 1 153 21 158 31 8 49 -2
49 -28 0 -16 7 -24 23 -27 42 -8 47 0 47 78 l0 74 -47 -2 c-27 -1 -86 -4 -132
-5z"/>
<path d="M8450 1728 c0 -39 12 -68 26 -68 11 0 14 -30 15 -157 0 -87 4 -180 7
-208 l7 -50 48 -3 c28 -2 55 2 63 9 24 20 65 110 71 158 3 25 9 51 14 56 4 6
13 32 20 59 11 46 13 48 21 25 13 -33 7 -200 -8 -219 -17 -22 -25 -88 -11 -93
7 -2 38 -2 69 1 l57 4 6 38 c5 31 2 43 -14 59 -19 19 -21 33 -21 161 0 116 3
142 15 146 11 4 15 21 15 56 l0 51 -31 -7 c-17 -3 -53 -6 -80 -6 -43 0 -49 -3
-49 -20 0 -12 -6 -33 -14 -48 -8 -15 -18 -45 -22 -66 -4 -22 -13 -51 -20 -65
-8 -14 -14 -43 -14 -63 0 -20 -6 -43 -13 -50 -8 -7 -16 -20 -20 -28 -3 -8 -6
46 -6 121 -1 113 2 138 14 143 10 3 15 19 15 46 l0 40 -80 0 c-76 0 -80 -1
-80 -22z"/>
<path d="M8923 1743 c-18 -7 -16 -58 2 -73 11 -9 15 -32 15 -78 0 -35 5 -105
12 -155 11 -82 10 -90 -6 -102 -12 -10 -16 -24 -14 -52 l3 -38 65 0 65 0 -2
35 c-2 19 -6 63 -9 98 l-6 63 44 -3 43 -3 3 -57 c2 -47 0 -58 -13 -58 -11 0
-15 -10 -15 -35 l0 -36 73 3 72 3 3 34 c2 23 -2 37 -12 43 -24 13 -24 309 0
332 8 9 14 28 12 43 -3 27 -5 28 -75 31 l-73 3 0 -36 c0 -19 5 -35 10 -35 6 0
10 -30 10 -69 l0 -69 -32 -5 c-18 -3 -36 -2 -39 2 -12 12 -20 139 -9 146 5 3
10 22 10 41 l0 34 -62 -1 c-35 0 -69 -3 -75 -6z"/>
<path d="M1575 1731 l-50 -6 -5 -50 c-3 -27 -9 -55 -13 -62 -4 -7 -14 -47 -23
-90 -26 -140 -39 -188 -57 -215 -27 -39 -19 -72 17 -76 57 -7 93 6 99 36 3 17
0 30 -9 35 -23 13 -17 47 10 57 28 10 93 2 102 -12 4 -5 1 -15 -5 -21 -6 -6
-11 -28 -11 -49 l0 -38 55 0 c30 0 55 3 55 8 0 4 -9 50 -20 102 -11 52 -27
131 -35 175 -32 171 -41 209 -50 210 -6 1 -32 -1 -60 -4z m43 -239 c-3 -45 -4
-47 -33 -47 -28 0 -30 3 -33 41 -2 24 4 59 15 83 l18 41 18 -36 c12 -23 17
-51 15 -82z"/>
<path d="M3120 1706 c0 -18 7 -39 15 -46 12 -10 15 -40 15 -152 0 -77 -4 -147
-9 -156 -5 -9 -10 -37 -12 -62 l-4 -45 128 -3 127 -3 0 61 0 60 -35 0 c-24 0
-35 -5 -35 -15 0 -19 -28 -34 -52 -27 -16 4 -18 13 -16 60 3 54 4 56 36 64 31
8 33 11 30 46 -3 34 -6 37 -35 40 -33 3 -33 4 -33 58 l0 54 35 0 c29 0 36 -4
41 -25 5 -19 13 -25 35 -25 l29 0 0 75 0 75 -130 0 -130 0 0 -34z"/>
<path d="M4803 1733 c-18 -7 -17 -83 1 -83 22 0 26 -24 26 -172 0 -131 -1
-140 -20 -145 -15 -4 -20 -14 -20 -39 0 -19 6 -36 13 -39 6 -2 60 -5 120 -8
l107 -4 0 69 c0 65 -1 68 -24 68 -17 0 -26 -7 -30 -25 -5 -20 -13 -25 -36 -25
-30 0 -30 1 -30 55 0 58 2 60 58 55 19 -1 22 3 22 38 0 38 -1 40 -40 46 l-40
6 0 50 c0 49 1 50 30 50 23 0 31 -5 36 -25 4 -18 13 -25 30 -25 23 0 24 2 24
80 l0 80 -107 -1 c-60 0 -114 -3 -120 -6z"/>
<path d="M5830 1700 c0 -29 4 -40 15 -40 13 0 15 -24 15 -154 0 -128 -3 -155
-15 -160 -11 -4 -15 -20 -15 -56 l0 -50 130 0 130 0 0 60 0 60 -40 0 c-26 0
-40 -4 -40 -13 0 -19 -20 -36 -36 -30 -10 3 -14 23 -14 63 0 56 1 58 30 64 27
5 30 9 30 46 0 39 -1 40 -35 40 l-35 0 0 55 c0 54 0 55 30 55 20 0 35 -8 46
-25 11 -17 25 -25 45 -25 l29 0 0 75 0 75 -135 0 -135 0 0 -40z"/>
<path d="M6198 1733 l-48 -4 0 -80 c0 -78 1 -80 23 -77 16 2 23 11 25 31 2 19
9 27 23 27 18 0 19 -8 19 -144 0 -119 -3 -145 -15 -150 -10 -3 -15 -19 -15
-46 0 -40 0 -40 38 -40 20 0 54 -3 75 -6 l37 -7 0 37 c0 23 -5 39 -15 42 -12
5 -15 28 -15 118 0 61 -4 128 -9 149 -10 42 -2 52 35 43 17 -5 24 -13 24 -32
0 -21 4 -25 23 -22 20 3 22 9 25 86 l3 82 -93 -2 c-51 -1 -114 -3 -140 -5z"/>
<path d="M8211 1733 c-39 -8 -60 -42 -61 -95 l0 -48 44 0 c43 0 45 1 48 32 4
42 31 48 54 13 14 -22 15 -31 4 -70 -9 -31 -18 -45 -30 -45 -20 0 -35 -15 -44
-46 -5 -18 -1 -22 23 -27 40 -8 62 -49 47 -89 -18 -48 -66 -50 -66 -2 0 22 -4
24 -45 24 l-45 0 0 -47 c0 -43 4 -50 33 -70 61 -42 160 -24 205 36 30 42 32
144 2 163 -19 12 -19 13 1 34 24 25 36 112 22 164 -7 27 -18 40 -47 54 -40 19
-103 28 -145 19z"/>
<path d="M6462 1438 l3 -33 75 0 c71 0 75 1 78 24 5 33 -12 41 -91 41 l-68 0
3 -32z"/>
</g>
</svg>
